<mxfile host="app.diagrams.net" modified="2021-07-11T17:35:53.513Z" agent="5.0 (X11; Linux x86_64) AppleWebKit/537.36 (KHTML, like Gecko) Chrome/91.0.4472.114 Safari/537.36" etag="RWZtxtISRn7ybPrdRi-F" version="14.8.5" type="github">
  <diagram id="XrEnlyODKcHfGaSfIAGe" name="Page-1">
    <mxGraphModel dx="778" dy="445" grid="1" gridSize="10" guides="1" tooltips="1" connect="1" arrows="1" fold="1" page="1" pageScale="1" pageWidth="827" pageHeight="1169" math="0" shadow="0">
      <root>
        <mxCell id="0" />
        <mxCell id="1" parent="0" />
        <mxCell id="AQswhDKpQPyqkZacl-FB-1" value="User" style="swimlane;fontStyle=0;childLayout=stackLayout;horizontal=1;startSize=26;fillColor=#fff2cc;horizontalStack=0;resizeParent=1;resizeParentMax=0;resizeLast=0;collapsible=1;marginBottom=0;strokeColor=#d6b656;" parent="1" vertex="1">
          <mxGeometry x="80" y="94" width="160" height="104" as="geometry" />
        </mxCell>
        <mxCell id="AQswhDKpQPyqkZacl-FB-2" value="- &lt;&lt;id&gt;&gt;id: IntegerÂ " style="text;strokeColor=none;fillColor=none;align=left;verticalAlign=top;spacingLeft=4;spacingRight=4;overflow=hidden;rotatable=0;points=[[0,0.5],[1,0.5]];portConstraint=eastwest;" parent="AQswhDKpQPyqkZacl-FB-1" vertex="1">
          <mxGeometry y="26" width="160" height="26" as="geometry" />
        </mxCell>
        <mxCell id="AQswhDKpQPyqkZacl-FB-4" value="- name: String" style="text;strokeColor=none;fillColor=none;align=left;verticalAlign=top;spacingLeft=4;spacingRight=4;overflow=hidden;rotatable=0;points=[[0,0.5],[1,0.5]];portConstraint=eastwest;" parent="AQswhDKpQPyqkZacl-FB-1" vertex="1">
          <mxGeometry y="52" width="160" height="26" as="geometry" />
        </mxCell>
        <mxCell id="AQswhDKpQPyqkZacl-FB-72" value="- email: String" style="text;strokeColor=none;fillColor=none;align=left;verticalAlign=top;spacingLeft=4;spacingRight=4;overflow=hidden;rotatable=0;points=[[0,0.5],[1,0.5]];portConstraint=eastwest;" parent="AQswhDKpQPyqkZacl-FB-1" vertex="1">
          <mxGeometry y="78" width="160" height="26" as="geometry" />
        </mxCell>
        <mxCell id="AQswhDKpQPyqkZacl-FB-13" value="Event" style="swimlane;fontStyle=0;childLayout=stackLayout;horizontal=1;startSize=26;fillColor=#fff2cc;horizontalStack=0;resizeParent=1;resizeParentMax=0;resizeLast=0;collapsible=1;marginBottom=0;strokeColor=#d6b656;" parent="1" vertex="1">
          <mxGeometry x="360" y="170" width="150" height="176" as="geometry" />
        </mxCell>
        <mxCell id="AQswhDKpQPyqkZacl-FB-14" value="- &lt;&lt;id&gt;&gt; id: Integer" style="text;strokeColor=none;fillColor=none;align=left;verticalAlign=top;spacingLeft=4;spacingRight=4;overflow=hidden;rotatable=0;points=[[0,0.5],[1,0.5]];portConstraint=eastwest;" parent="AQswhDKpQPyqkZacl-FB-13" vertex="1">
          <mxGeometry y="26" width="150" height="24" as="geometry" />
        </mxCell>
        <mxCell id="AQswhDKpQPyqkZacl-FB-73" value="- title: String" style="text;strokeColor=none;fillColor=none;align=left;verticalAlign=top;spacingLeft=4;spacingRight=4;overflow=hidden;rotatable=0;points=[[0,0.5],[1,0.5]];portConstraint=eastwest;" parent="AQswhDKpQPyqkZacl-FB-13" vertex="1">
          <mxGeometry y="50" width="150" height="24" as="geometry" />
        </mxCell>
        <mxCell id="AQswhDKpQPyqkZacl-FB-74" value="- description: String" style="text;strokeColor=none;fillColor=none;align=left;verticalAlign=top;spacingLeft=4;spacingRight=4;overflow=hidden;rotatable=0;points=[[0,0.5],[1,0.5]];portConstraint=eastwest;" parent="AQswhDKpQPyqkZacl-FB-13" vertex="1">
          <mxGeometry y="74" width="150" height="24" as="geometry" />
        </mxCell>
        <mxCell id="AQswhDKpQPyqkZacl-FB-75" value="- place: String" style="text;strokeColor=none;fillColor=none;align=left;verticalAlign=top;spacingLeft=4;spacingRight=4;overflow=hidden;rotatable=0;points=[[0,0.5],[1,0.5]];portConstraint=eastwest;" parent="AQswhDKpQPyqkZacl-FB-13" vertex="1">
          <mxGeometry y="98" width="150" height="26" as="geometry" />
        </mxCell>
        <mxCell id="AQswhDKpQPyqkZacl-FB-15" value="- timeBegin: DateTime&#xa;&#xa;" style="text;strokeColor=none;fillColor=none;align=left;verticalAlign=top;spacingLeft=4;spacingRight=4;overflow=hidden;rotatable=0;points=[[0,0.5],[1,0.5]];portConstraint=eastwest;" parent="AQswhDKpQPyqkZacl-FB-13" vertex="1">
          <mxGeometry y="124" width="150" height="26" as="geometry" />
        </mxCell>
        <mxCell id="AQswhDKpQPyqkZacl-FB-16" value="- timeEnd: DateTime&#xa;" style="text;strokeColor=none;fillColor=none;align=left;verticalAlign=top;spacingLeft=4;spacingRight=4;overflow=hidden;rotatable=0;points=[[0,0.5],[1,0.5]];portConstraint=eastwest;" parent="AQswhDKpQPyqkZacl-FB-13" vertex="1">
          <mxGeometry y="150" width="150" height="26" as="geometry" />
        </mxCell>
        <mxCell id="AQswhDKpQPyqkZacl-FB-21" value="Category" style="swimlane;fontStyle=0;childLayout=stackLayout;horizontal=1;startSize=26;fillColor=#fff2cc;horizontalStack=0;resizeParent=1;resizeParentMax=0;resizeLast=0;collapsible=1;marginBottom=0;strokeColor=#d6b656;" parent="1" vertex="1">
          <mxGeometry x="80" y="260" width="160" height="104" as="geometry" />
        </mxCell>
        <mxCell id="AQswhDKpQPyqkZacl-FB-22" value="- &lt;&lt;id&gt;&gt; id: Integer" style="text;strokeColor=none;fillColor=none;align=left;verticalAlign=top;spacingLeft=4;spacingRight=4;overflow=hidden;rotatable=0;points=[[0,0.5],[1,0.5]];portConstraint=eastwest;" parent="AQswhDKpQPyqkZacl-FB-21" vertex="1">
          <mxGeometry y="26" width="160" height="26" as="geometry" />
        </mxCell>
        <mxCell id="AQswhDKpQPyqkZacl-FB-23" value="- name: String" style="text;strokeColor=none;fillColor=none;align=left;verticalAlign=top;spacingLeft=4;spacingRight=4;overflow=hidden;rotatable=0;points=[[0,0.5],[1,0.5]];portConstraint=eastwest;" parent="AQswhDKpQPyqkZacl-FB-21" vertex="1">
          <mxGeometry y="52" width="160" height="26" as="geometry" />
        </mxCell>
        <mxCell id="AQswhDKpQPyqkZacl-FB-76" value="- color: Integer" style="text;strokeColor=none;fillColor=none;align=left;verticalAlign=top;spacingLeft=4;spacingRight=4;overflow=hidden;rotatable=0;points=[[0,0.5],[1,0.5]];portConstraint=eastwest;" parent="AQswhDKpQPyqkZacl-FB-21" vertex="1">
          <mxGeometry y="78" width="160" height="26" as="geometry" />
        </mxCell>
        <mxCell id="Kd462zBCJ9seb43RtsSA-15" value="" style="endArrow=open;html=1;endSize=12;startArrow=diamondThin;startSize=14;startFill=0;edgeStyle=orthogonalEdgeStyle;exitX=0.5;exitY=0;exitDx=0;exitDy=0;entryX=1;entryY=0.5;entryDx=0;entryDy=0;" edge="1" parent="1" source="AQswhDKpQPyqkZacl-FB-13" target="AQswhDKpQPyqkZacl-FB-2">
          <mxGeometry relative="1" as="geometry">
            <mxPoint x="300" y="94" as="sourcePoint" />
            <mxPoint x="460" y="94" as="targetPoint" />
            <Array as="points">
              <mxPoint x="435" y="133" />
            </Array>
          </mxGeometry>
        </mxCell>
        <mxCell id="Kd462zBCJ9seb43RtsSA-16" value="0..n" style="edgeLabel;resizable=0;html=1;align=left;verticalAlign=bottom;labelPosition=right;verticalLabelPosition=top;" connectable="0" vertex="1" parent="Kd462zBCJ9seb43RtsSA-15">
          <mxGeometry x="-1" relative="1" as="geometry" />
        </mxCell>
        <mxCell id="Kd462zBCJ9seb43RtsSA-17" value="1" style="edgeLabel;resizable=0;html=1;align=left;verticalAlign=top;labelPosition=right;verticalLabelPosition=bottom;" connectable="0" vertex="1" parent="Kd462zBCJ9seb43RtsSA-15">
          <mxGeometry x="1" relative="1" as="geometry" />
        </mxCell>
        <mxCell id="Kd462zBCJ9seb43RtsSA-18" value="" style="endArrow=open;html=1;endSize=12;startArrow=diamondThin;startSize=14;startFill=0;edgeStyle=orthogonalEdgeStyle;exitX=0.5;exitY=0;exitDx=0;exitDy=0;" edge="1" parent="1" source="AQswhDKpQPyqkZacl-FB-21" target="AQswhDKpQPyqkZacl-FB-1">
          <mxGeometry relative="1" as="geometry">
            <mxPoint x="340" y="240" as="sourcePoint" />
            <mxPoint x="150" y="244" as="targetPoint" />
            <Array as="points">
              <mxPoint x="160" y="260" />
              <mxPoint x="160" y="260" />
            </Array>
          </mxGeometry>
        </mxCell>
        <mxCell id="Kd462zBCJ9seb43RtsSA-19" value="0..n" style="edgeLabel;resizable=0;html=1;align=left;verticalAlign=bottom;labelPosition=right;verticalLabelPosition=top;" connectable="0" vertex="1" parent="Kd462zBCJ9seb43RtsSA-18">
          <mxGeometry x="-1" relative="1" as="geometry" />
        </mxCell>
        <mxCell id="Kd462zBCJ9seb43RtsSA-20" value="1" style="edgeLabel;resizable=0;html=1;align=left;verticalAlign=top;labelPosition=right;verticalLabelPosition=bottom;" connectable="0" vertex="1" parent="Kd462zBCJ9seb43RtsSA-18">
          <mxGeometry x="1" relative="1" as="geometry" />
        </mxCell>
        <mxCell id="Kd462zBCJ9seb43RtsSA-30" value="" style="endArrow=open;html=1;endSize=12;startArrow=diamondThin;startSize=14;startFill=0;edgeStyle=orthogonalEdgeStyle;exitX=1;exitY=0.25;exitDx=0;exitDy=0;entryX=0;entryY=0.5;entryDx=0;entryDy=0;" edge="1" parent="1" source="AQswhDKpQPyqkZacl-FB-21" target="AQswhDKpQPyqkZacl-FB-75">
          <mxGeometry relative="1" as="geometry">
            <mxPoint x="425" y="477" as="sourcePoint" />
            <mxPoint x="330" y="260" as="targetPoint" />
            <Array as="points">
              <mxPoint x="330" y="286" />
              <mxPoint x="330" y="281" />
            </Array>
          </mxGeometry>
        </mxCell>
        <mxCell id="Kd462zBCJ9seb43RtsSA-31" value="0..1" style="edgeLabel;resizable=0;html=1;align=left;verticalAlign=bottom;labelPosition=right;verticalLabelPosition=top;" connectable="0" vertex="1" parent="Kd462zBCJ9seb43RtsSA-30">
          <mxGeometry x="-1" relative="1" as="geometry" />
        </mxCell>
        <mxCell id="Kd462zBCJ9seb43RtsSA-32" value="0..n" style="edgeLabel;resizable=0;html=1;align=right;verticalAlign=top;labelPosition=left;verticalLabelPosition=bottom;" connectable="0" vertex="1" parent="Kd462zBCJ9seb43RtsSA-30">
          <mxGeometry x="1" relative="1" as="geometry" />
        </mxCell>
      </root>
    </mxGraphModel>
  </diagram>
</mxfile>
